# xmcd
# Track frame offsets:
# 150
# 14055
# 27264
# 49814
# 64711
# 84325
# 102465
# 117154
# 134986
# 151691
# 172803
#
# Disc length: 2516 seconds
# Revision: 0
# Processed by: cddbd v1.4PL0 Copyright (c) Steve Scherf et al.
# Submitted via: VisiTrax 2.9.3.171 - For more info visit www.synapsa.com
#
DISCID=8d09d20b
DTITLE=Kevin Sharp - Measure Of A Man
DYEAR=2002
DGENRE=Country
TTITLE0=Measure Of A Man
TTITLE1=Nobody Knows
TTITLE2=If You Love Somebody
TTITLE3=There's Only you
TTITLE4=She's Sure Taking It Well
TTITLE5=The Strenght To Love
TTITLE6=Love Bomb
TTITLE7=I'm Already Loving You Too Much
TTITLE8=Population 4000 Minus 1
TTITLE9=Somebody's Baby
TTITLE10=Love At The End Of The Road
EXTD=
EXTT0=
EXTT1=
EXTT2=
EXTT3=
EXTT4=
EXTT5=
EXTT6=
EXTT7=
EXTT8=
EXTT9=
EXTT10=
PLAYORDER=
